<?xml version="1.0" encoding="UTF-8"?>
<svg width="135px" height="180px" viewBox="0 0 537 613" version="1.1" xmlns="http://www.w3.org/2000/svg" xmlns:xlink="http://www.w3.org/1999/xlink">
    <!-- Generator: Sketch 45.2 (43514) - http://www.bohemiancoding.com/sketch -->
    <title>postgresql-hexagon</title>
    <desc>Created with Sketch.</desc>
    <defs></defs>
    <g id="Page-1" stroke="none" stroke-width="1" fill="none" fill-rule="evenodd">
        <g id="postgreSQL-hexagon" transform="translate(23.000000, 23.000000)">
            <polygon id="Polygon" stroke="#336791" stroke-width="40" stroke-linejoin="round" points="245.355294 0 490.710588 141.655945 490.710588 424.967836 245.355294 566.623781 0 424.967836 0 141.655945"></polygon>
            <path d="M372.008,323.086 C370.473,318.437 366.452,315.199 361.252,314.422 C358.8,314.056 355.992,314.212 352.669,314.897 C346.877,316.092 342.58,316.547 339.444,316.635 C351.281,296.65 360.906,273.86 366.447,252.407 C375.407,217.718 370.619,201.915 365.024,194.767 C350.217,175.847 328.614,165.683 302.552,165.372 C288.649,165.202 276.444,167.947 270.077,169.921 C264.149,168.875 257.775,168.291 251.087,168.183 C238.55,167.983 227.473,170.716 218.008,176.333 C212.768,174.561 204.358,172.063 194.646,170.469 C171.804,166.719 153.394,169.641 139.928,179.154 C123.622,190.672 116.063,210.684 117.461,238.634 C117.905,247.508 122.869,274.508 130.685,300.114 C135.177,314.832 139.967,327.054 144.922,336.444 C151.949,349.759 159.468,357.6 167.909,360.416 C172.64,361.992 181.236,363.096 190.277,355.566 C191.423,356.954 192.952,358.333 194.981,359.614 C197.558,361.239 200.709,362.567 203.856,363.354 C215.197,366.189 225.82,365.48 234.883,361.506 C234.939,363.118 234.982,364.658 235.018,365.988 C235.078,368.145 235.138,370.26 235.217,372.238 C235.754,385.612 236.664,396.011 239.36,403.287 C239.508,403.687 239.707,404.297 239.917,404.944 C241.262,409.062 243.511,415.956 249.233,421.355 C255.158,426.948 262.325,428.663 268.889,428.663 C272.181,428.663 275.322,428.231 278.077,427.641 C287.897,425.536 299.05,422.33 307.118,410.842 C314.746,399.982 318.454,383.625 319.125,357.852 C319.212,357.123 319.292,356.427 319.369,355.764 L319.529,354.402 L321.326,354.56 L321.789,354.591 C331.791,355.047 344.021,352.926 351.532,349.437 C357.467,346.683 376.486,336.642 372.008,323.086" id="Shape" fill="#000000" fill-rule="nonzero"></path>
            <path d="M354.906,325.722 C325.166,331.857 323.121,321.788 323.121,321.788 C354.521,275.195 367.648,216.052 356.321,201.577 C325.417,162.092 271.922,180.766 271.029,181.25 L270.742,181.302 C264.866,180.082 258.291,179.356 250.9,179.235 C237.444,179.015 227.236,182.763 219.49,188.637 C219.49,188.637 124.06,149.323 128.499,238.081 C129.443,256.963 155.563,380.954 186.717,343.503 C198.104,329.808 209.107,318.229 209.107,318.229 C214.571,321.859 221.113,323.711 227.971,323.046 L228.504,322.594 C228.338,324.294 228.414,325.957 228.717,327.926 C220.691,336.893 223.05,338.467 207.006,341.77 C190.771,345.116 200.308,351.072 206.535,352.63 C214.084,354.517 231.548,357.191 243.348,340.672 L242.878,342.557 C246.022,345.076 248.23,358.94 247.86,371.509 C247.49,384.077 247.243,392.706 249.72,399.446 C252.199,406.186 254.668,421.351 275.76,416.832 C293.383,413.055 302.516,403.268 303.787,386.942 C304.688,375.336 306.729,377.052 306.857,366.675 L308.494,361.763 C310.381,346.03 308.794,340.954 319.651,343.315 L322.291,343.547 C330.281,343.91 340.741,342.261 346.88,339.408 C360.098,333.274 367.938,323.031 354.904,325.722 L354.906,325.722" id="Shape" fill="#336791" fill-rule="nonzero"></path>
            <path d="M225.076,246.525 C222.396,246.152 219.969,246.497 218.741,247.427 C218.051,247.95 217.837,248.556 217.779,248.973 C217.625,250.078 218.399,251.3 218.875,251.93 C220.221,253.714 222.187,254.94 224.133,255.21 C224.415,255.25 224.696,255.268 224.975,255.268 C228.22,255.268 231.171,252.741 231.431,250.876 C231.756,248.54 228.365,246.983 225.076,246.526 M313.86,246.599 C313.604,244.768 310.346,244.246 307.254,244.676 C304.166,245.106 301.172,246.5 301.422,248.335 C301.622,249.762 304.199,252.198 307.249,252.198 C307.507,252.198 307.767,252.181 308.029,252.144 C310.065,251.862 311.559,250.569 312.269,249.824 C313.349,248.688 313.975,247.422 313.86,246.599" id="Shape" fill="#FFFFFF" fill-rule="nonzero"></path>
            <path d="M364.802,325.025 C363.668,321.596 360.018,320.493 353.954,321.745 C335.949,325.461 329.501,322.887 327.384,321.328 C341.379,300.008 352.892,274.236 359.103,250.191 C362.045,238.801 363.67,228.223 363.803,219.601 C363.95,210.138 362.338,203.184 359.014,198.936 C345.612,181.811 325.942,172.625 302.132,172.373 C285.763,172.189 271.933,176.378 269.252,177.556 C263.606,176.152 257.451,175.29 250.75,175.18 C238.462,174.981 227.84,177.923 219.046,183.92 C215.226,182.498 205.354,179.109 193.281,177.164 C172.409,173.804 155.823,176.35 143.987,184.735 C129.864,194.741 123.344,212.627 124.607,237.895 C125.032,246.396 129.876,272.548 137.52,297.593 C147.582,330.557 158.52,349.218 170.028,353.057 C171.375,353.506 172.928,353.82 174.641,353.82 C178.839,353.82 183.986,351.928 189.341,345.49 C195.872563,337.654553 202.629046,330.009366 209.602,322.564 C214.126,324.992 219.096,326.348 224.179,326.484 C224.189,326.617 224.202,326.75 224.214,326.882 C223.339025,327.925382 222.48223,328.983875 221.644,330.057 C218.122,334.528 217.389,335.459 206.052,337.793 C202.827,338.459 194.262,340.224 194.136,346.228 C194,352.788 204.261,355.543 205.43,355.835 C209.504,356.855 213.429,357.358 217.172,357.358 C226.275,357.358 234.286,354.366 240.688,348.577 C240.491,371.963 241.466,395.007 244.274,402.028 C246.574,407.776 252.192,421.823 269.938,421.822 C272.542,421.822 275.408,421.519 278.561,420.843 C297.082,416.873 305.125,408.687 308.236,390.64 C309.901,380.995 312.758,357.964 314.102,345.61 C316.938,346.495 320.589,346.9 324.536,346.899 C332.768,346.899 342.267,345.15 348.224,342.385 C354.916,339.277 366.992,331.651 364.802,325.025 L364.802,325.025 Z M320.696,241.545 C320.635,245.192 320.133,248.503 319.601,251.959 C319.028,255.676 318.436,259.519 318.287,264.184 C318.14,268.724 318.707,273.444 319.255,278.009 C320.363,287.229 321.5,296.721 317.099,306.087 C316.367939,304.791638 315.716725,303.452809 315.149,302.078 C314.602,300.752 313.414,298.622 311.769,295.674 C305.37,284.198 290.385,257.324 298.056,246.358 C300.341,243.094 306.14,239.738 320.696,241.545 L320.696,241.545 Z M303.052,179.758 C324.386,180.229 341.262,188.21 353.21,203.478 C362.374,215.189 352.283,268.476 323.07,314.447 C322.776217,314.073439 322.480881,313.701103 322.184,313.33 L321.814,312.868 C329.363,300.401 327.887,288.066 326.573,277.13 C326.033,272.642 325.523,268.403 325.653,264.421 C325.787,260.201 326.345,256.581 326.885,253.081 C327.548,248.768 328.223,244.305 328.037,239.044 C328.176,238.492 328.232,237.84 328.159,237.066 C327.684,232.021 321.924,216.922 310.184,203.256 C303.762,195.781 294.397,187.416 281.61,181.774 C287.11,180.634 294.631,179.571 303.052,179.758 Z M183.674,340.778 C177.774,347.872 173.7,346.512 172.36,346.066 C163.63,343.154 153.5,324.702 144.569,295.442 C136.841,270.124 132.325,244.665 131.967,237.526 C130.839,214.948 136.312,199.213 148.235,190.757 C167.639,176.997 199.541,185.233 212.36,189.41 C212.176,189.592 211.984,189.762 211.802,189.947 C190.766,211.191 191.265,247.487 191.317,249.706 C191.315,250.562 191.387,251.774 191.485,253.441 C191.847,259.546 192.521,270.908 190.721,283.775 C189.049,295.732 192.735,307.435 200.832,315.884 C201.662982,316.749439 202.536389,317.573118 203.449,318.352 C199.845,322.212 192.012,330.748 183.674,340.778 Z M206.153,310.785 C199.627,303.975 196.663,294.503 198.02,284.795 C199.92,271.203 199.219,259.365 198.842,253.005 C198.789,252.115 198.742,251.335 198.715,250.72 C201.788,247.995 216.029,240.365 226.185,242.692 C230.819,243.753 233.643,246.909 234.817,252.337 C240.893,280.44 235.621,292.153 231.385,301.566 C230.512,303.505 229.687,305.338 228.983,307.234 L228.437,308.7 C227.055,312.406 225.769,315.852 224.972,319.124 C218.034,319.104 211.285,316.14 206.153,310.784 L206.153,310.785 Z M207.218,348.685 C205.192,348.179 203.37,347.3 202.301,346.571 C203.194,346.151 204.783,345.579 207.539,345.011 C220.876,342.266 222.936,340.328 227.434,334.617 C228.465,333.307 229.634,331.823 231.253,330.015 L231.255,330.013 C233.666,327.313 234.769,327.771 236.769,328.601 C238.39,329.271 239.969,331.303 240.609,333.539 C240.912,334.595 241.252,336.599 240.139,338.159 C230.743,351.315 217.051,351.146 207.218,348.685 L207.218,348.685 Z M277.017,413.637 C260.701,417.133 254.924,408.808 251.117,399.291 C248.66,393.147 247.452,365.441 248.309,334.844 C248.32,334.437 248.262,334.044 248.15,333.674 C248.049814,332.94337 247.897424,332.220855 247.694,331.512 C246.42,327.06 243.315,323.336 239.59,321.792 C238.11,321.179 235.394,320.054 232.13,320.889 C232.826,318.021 234.033,314.782 235.342,311.275 L235.891,309.8 C236.509,308.137 237.285,306.414 238.105,304.59 C242.538,294.742 248.609,281.253 242.02,250.78 C239.552,239.366 231.31,233.792 218.816,235.087 C211.326,235.862 204.473,238.884 201.055,240.617 C200.32,240.989 199.648,241.349 199.02,241.699 C199.974,230.199 203.578,208.707 217.06,195.109 C225.549,186.549 236.854,182.321 250.628,182.549 C277.768,182.993 295.172,196.921 304.994,208.528 C313.458,218.529 318.041,228.604 319.87,234.038 C306.115,232.639 296.76,235.354 292.018,242.134 C281.701,256.882 297.662,285.506 305.333,299.263 C306.74,301.784 307.954,303.963 308.336,304.889 C310.834,310.943 314.068,314.985 316.429,317.935 C317.153,318.839 317.855,319.716 318.389,320.482 C314.223,321.683 306.74,324.458 307.422,338.329 C306.872,345.289 302.961,377.875 300.974,389.388 C298.351,404.598 292.754,410.263 277.017,413.638 L277.017,413.637 Z M345.121,335.701 C340.861,337.678 333.732,339.161 326.96,339.48 C319.48,339.83 315.672,338.642 314.776,337.911 C314.356,329.267 317.573,328.364 320.978,327.408 C321.513,327.258 322.035,327.111 322.539,326.935 C322.852,327.19 323.195,327.443 323.571,327.691 C329.583,331.659 340.306,332.087 355.445,328.962 L355.611,328.929 C353.569,330.838 350.075,333.4 345.121,335.701 Z" id="Shape" fill="#FFFFFF" fill-rule="nonzero"></path>
        </g>
    </g>
</svg>