<?xml version="1.0" encoding="UTF-8"?>
<svg width="225px" height="270px" viewBox="0 0 356 413" version="1.1" xmlns="http://www.w3.org/2000/svg" xmlns:xlink="http://www.w3.org/1999/xlink">
    <!-- Generator: Sketch 45.2 (43514) - http://www.bohemiancoding.com/sketch -->
    <title>react-hexagon</title>
    <desc>Created with Sketch.</desc>
    <defs></defs>
    <g id="Page-1" stroke="none" stroke-width="1" fill="none" fill-rule="evenodd">
        <g id="react" transform="translate(4.000000, 5.462606)">
            <polygon id="Polygon" stroke="#FFFFFF" stroke-width="7" fill="" points="174.135166 0 348.270331 100.536985 348.270331 301.610954 174.135166 402.147939 1.13686838e-13 301.610954 0 100.536985"></polygon>
            <path d="M255.658143,160.926853 C252.949959,159.997893 250.218798,159.137318 247.46726,158.345948 C247.923564,156.491801 248.345529,154.629373 248.732939,152.759617 C254.932967,122.66257 250.879189,98.4164755 237.035539,90.4350377 C223.762795,82.7801542 202.054816,90.761592 180.130635,109.840246 C177.97029,111.724513 175.857898,113.663063 173.795481,115.654039 C172.414337,114.330158 171.008786,113.031975 169.579553,111.76016 C146.602516,91.3583982 123.571428,82.7621375 109.742416,90.7672223 C96.4820591,98.4435007 92.5543989,121.238118 98.1362256,149.760948 C98.6915783,152.58554 99.3186149,155.395565 100.016728,158.188301 C96.7579412,159.113914 93.6106332,160.100333 90.5995773,161.149811 C63.6622248,170.541062 46.4584428,185.260779 46.4584428,200.527756 C46.4584428,216.296951 64.9256521,232.113441 92.9845498,241.702877 C95.2597121,242.476845 97.5538116,243.193986 99.8647113,243.853631 C99.1139763,246.862368 98.4474703,249.891497 97.8659737,252.937471 C92.5442645,280.96484 96.7005126,303.218953 109.925962,310.847937 C123.586067,318.724652 146.512432,310.628357 168.837486,291.113922 C170.602005,289.571235 172.373281,287.935085 174.146809,286.220112 C176.38069,288.375437 178.674217,290.468074 181.024718,292.495585 C202.64937,311.10355 224.006022,318.617678 237.220211,310.968424 C250.867929,303.068062 255.302311,279.160908 249.543695,250.073928 C249.104536,247.852232 248.592183,245.583243 248.017898,243.27259 C249.628149,242.797397 251.207996,242.306439 252.749557,241.795213 C281.91874,232.131457 300.896049,216.507523 300.896049,200.527756 C300.896049,185.205603 283.138251,170.386794 255.658143,160.926853 Z" id="Shape" fill="#53C1DE" fill-rule="nonzero"></path>
            <path d="M249.330872,231.478349 C247.940201,231.938903 246.51237,232.383692 245.057514,232.814969 C241.837013,222.620845 237.490463,211.780368 232.173258,200.581807 C237.248362,189.647868 241.426005,178.947021 244.556422,168.818207 C247.158722,169.57266 249.685577,170.366525 252.120096,171.205431 C275.665788,179.309609 290.027421,191.294152 290.027421,200.527756 C290.027421,210.363797 274.516091,223.133197 249.331998,231.478349 L249.330872,231.478349 Z M238.881134,252.18527 C241.427131,265.047006 241.790845,276.675718 240.104023,285.766314 C238.588361,293.934676 235.541271,299.380251 231.77351,301.561408 C223.754913,306.202984 206.606307,300.169611 188.114325,284.256282 C185.993974,282.432082 183.857858,280.484016 181.716112,278.423346 C188.885669,270.581538 196.050721,261.465043 203.043487,251.341859 C215.34445,250.250717 226.965279,248.465929 237.503975,246.030285 C238.021958,248.124736 238.483638,250.177524 238.881134,252.18527 L238.881134,252.18527 Z M133.201402,300.759661 C125.367477,303.526364 119.128038,303.605188 115.356898,301.430786 C107.330418,296.802724 103.99506,278.93232 108.545426,254.96436 C109.086538,252.131851 109.706103,249.314894 110.403407,246.516738 C120.824994,248.821761 132.361369,250.480432 144.69161,251.480363 C151.730544,261.386219 159.102789,270.491455 166.532463,278.46501 C164.953459,279.992455 163.337089,281.480792 161.684821,282.92867 C151.812746,291.558712 141.920402,297.679916 133.202528,300.759661 L133.201402,300.759661 Z M96.5000759,231.417542 C84.0932641,227.17684 73.8473411,221.665955 66.8241713,215.652851 C60.5137908,210.247814 57.3270711,204.882189 57.3270711,200.527756 C57.3270711,191.263748 71.1403185,179.445861 94.1781621,171.413751 C97.0697433,170.41001 99.9900895,169.491135 102.935448,168.658308 C106.119915,179.014584 110.296432,189.842674 115.336629,200.792378 C110.231122,211.905359 105.994924,222.905735 102.781179,233.383624 C100.671685,232.779828 98.5773512,232.124269 96.5000759,231.417542 L96.5000759,231.417542 Z M108.803291,147.673252 C104.020959,123.234603 107.196419,104.800049 115.187991,100.174239 C123.700924,95.2466466 142.522839,102.273195 162.361576,119.887984 C163.629508,121.014034 164.90307,122.193007 166.178883,123.412519 C158.787496,131.350041 151.482813,140.386587 144.504686,150.235014 C132.538159,151.344173 121.082859,153.125583 110.552046,155.511682 C109.903355,152.913604 109.320252,150.299589 108.803291,147.672126 L108.803291,147.673252 Z M218.555943,174.773882 C216.068587,170.477362 213.48896,166.234925 210.818858,162.049524 C218.937674,163.074229 226.715296,164.436749 234.018852,166.104428 C231.826434,173.132102 229.093513,180.4807 225.875264,188.01397 C223.523867,183.552326 221.083607,179.138083 218.555943,174.773882 L218.555943,174.773882 Z M173.798859,131.180007 C178.812031,136.610943 183.833085,142.675845 188.771938,149.255351 C178.753489,148.781938 168.718324,148.779683 158.699664,149.248595 C163.64302,142.729895 168.706864,136.674002 173.798859,131.180007 L173.798859,131.180007 Z M128.754633,174.848201 C126.258617,179.177694 123.863984,183.564851 121.572691,188.006088 C118.407366,180.498717 115.699217,173.117463 113.487656,165.989571 C120.747296,164.364682 128.488886,163.037069 136.554777,162.029255 C133.854751,166.240595 131.253986,170.514755 128.754633,174.848201 L128.754633,174.848201 Z M136.786743,239.802106 C128.453978,238.871989 120.59528,237.61194 113.337892,236.032092 C115.58436,228.778082 118.35219,221.238056 121.585077,213.56966 C123.88603,218.014189 126.291185,222.403992 128.798549,226.735429 C131.357059,231.153853 134.020547,235.510649 136.786743,239.802106 L136.786743,239.802106 Z M174.099515,270.643471 C168.947839,265.084166 163.809676,258.935936 158.790874,252.322648 C163.662163,252.514077 168.629167,252.610917 173.677246,252.610917 C178.863829,252.610917 183.990732,252.494934 189.036559,252.269724 C184.081942,259.003499 179.078905,265.160737 174.099515,270.643471 Z M225.97886,213.178921 C229.379529,220.930645 232.246451,228.430133 234.523323,235.561404 C227.145447,237.244848 219.1809,238.600611 210.788454,239.607299 C213.477856,235.343754 216.082173,231.027128 218.599859,226.659984 C221.15924,222.221599 223.619516,217.726798 225.97886,213.178921 L225.97886,213.178921 Z M209.183834,221.230174 C205.329592,227.925614 201.25865,234.493952 196.977459,240.924777 C189.428424,241.464154 181.627154,241.742289 173.677246,241.742289 C165.759993,241.742289 158.057816,241.495684 150.640529,241.014861 C146.248301,234.599009 142.100348,228.019303 138.205566,221.289854 C134.328988,214.59611 130.708007,207.757564 127.35045,200.789 C130.699467,193.818348 134.309506,186.976139 138.17291,180.276885 L138.17291,180.279137 C142.035102,173.578456 146.150401,167.026883 150.509907,160.638584 C158.076958,160.066551 165.835438,159.767022 173.678372,159.767022 C181.556213,159.767022 189.324828,160.068803 196.889627,160.645341 C201.205038,167.023809 205.294015,173.552577 209.148927,180.219456 C213.025616,186.903806 216.683833,193.712498 220.117773,200.634731 C216.719156,207.62749 213.072574,214.496992 209.18496,221.230174 L209.183834,221.230174 Z M231.606855,99.8510624 C240.126544,104.765142 243.440507,124.580232 238.087269,150.566073 C237.736393,152.258893 237.354975,153.94524 236.943203,155.624287 C226.387616,153.188642 214.924434,151.375702 202.923,150.249653 C195.931359,140.294251 188.687484,131.24194 181.415457,123.406889 C183.321029,121.569793 185.271948,119.780324 187.26641,118.040137 C206.051165,101.692153 223.6074,95.2376382 231.606855,99.8510624 L231.606855,99.8510624 Z" id="Shape" fill="#292C34" fill-rule="nonzero"></path>
            <path d="M173.677246,177.807459 C186.22594,177.807459 196.397544,187.980189 196.397544,200.527756 C196.397544,213.07645 186.22594,223.24918 173.677246,223.24918 C161.129678,223.24918 150.956948,213.07645 150.956948,200.527756 C150.956948,187.980189 161.129678,177.807459 173.677246,177.807459" id="Shape" fill="#53C1DE" fill-rule="nonzero"></path>
        </g>
    </g>
</svg>