<?xml version="1.0" encoding="UTF-8"?>
<svg width="225px" height="270px" viewBox="0 0 113 131" version="1.1" xmlns="http://www.w3.org/2000/svg" xmlns:xlink="http://www.w3.org/1999/xlink">
    <!-- Generator: Sketch 45.2 (43514) - http://www.bohemiancoding.com/sketch -->
    <title>redux-hexagon</title>
    <desc>Created with Sketch.</desc>
    <defs></defs>
    <g id="Page-1" stroke="none" stroke-width="1" fill="none" fill-rule="evenodd">
        <g id="redux" transform="translate(1.000000, 2.000000)">
            <polygon id="Polygon" stroke="#FFFFFF" stroke-width="2" fill="" points="55.0405925 0 110.081185 31.7777009 110.081185 95.3331026 55.0405925 127.110804 4.4408921e-14 95.3331026 8.8817842e-15 31.7777009"></polygon>
            <path d="M71.6,73.4 C74.5,73.1 76.7,70.6 76.6,67.6 C76.5,64.6 74,62.2 71,62.2 L70.8,62.2 C67.7,62.3 65.3,64.9 65.4,68 C65.5,69.5 66.1,70.8 67,71.7 C63.6,78.4 58.4,83.3 50.6,87.4 C45.3,90.2 39.8,91.2 34.3,90.5 C29.8,89.9 26.3,87.9 24.1,84.6 C20.9,79.7 20.6,74.4 23.3,69.1 C25.2,65.3 28.2,62.5 30.1,61.1 C29.7,59.8 29.1,57.6 28.8,56 C14.3,66.5 15.8,80.7 20.2,87.4 C23.5,92.4 30.2,95.5 37.6,95.5 C39.6,95.5 41.6,95.3 43.6,94.8 C56.4,92.3 66.1,84.7 71.6,73.4 L71.6,73.4 Z" id="Shape" fill="#764ABC" fill-rule="nonzero"></path>
            <path d="M89.2,61 C81.6,52.1 70.4,47.2 57.6,47.2 L56,47.2 C55.1,45.4 53.2,44.2 51.1,44.2 L50.9,44.2 C47.8,44.3 45.4,46.9 45.5,50 C45.6,53 48.1,55.4 51.1,55.4 L51.3,55.4 C53.5,55.3 55.4,53.9 56.2,52 L58,52 C65.6,52 72.8,54.2 79.3,58.5 C84.3,61.8 87.9,66.1 89.9,71.3 C91.6,75.5 91.5,79.6 89.7,83.1 C86.9,88.4 82.2,91.3 76,91.3 C72,91.3 68.2,90.1 66.2,89.2 C65.1,90.2 63.1,91.8 61.7,92.8 C66,94.8 70.4,95.9 74.6,95.9 C84.2,95.9 91.3,90.6 94,85.3 C96.9,79.5 96.7,69.5 89.2,61 Z" id="Shape" fill="#764ABC" fill-rule="nonzero"></path>
            <path d="M38.4,75.1 C38.5,78.1 41,80.5 44,80.5 L44.2,80.5 C47.3,80.4 49.7,77.8 49.6,74.7 C49.5,71.7 47,69.3 44,69.3 L43.8,69.3 C43.6,69.3 43.3,69.3 43.1,69.4 C39,62.6 37.3,55.2 37.9,47.2 C38.3,41.2 40.3,36 43.8,31.7 C46.7,28 52.3,26.2 56.1,26.1 C66.7,25.9 71.2,39.1 71.5,44.4 C72.8,44.7 75,45.4 76.5,45.9 C75.3,29.7 65.3,21.3 55.7,21.3 C46.7,21.3 38.4,27.8 35.1,37.4 C30.5,50.2 33.5,62.5 39.1,72.2 C38.6,72.9 38.3,74 38.4,75.1 L38.4,75.1 Z" id="Shape" fill="#764ABC" fill-rule="nonzero"></path>
        </g>
    </g>
</svg>